#!OML:ASF H:\Terrain\Walking\May29\JustinRory\Justin.ASF
:FULLY-SPECIFIED
:DEGREES
48
root 8.38155 17.8639 9.13942 -179.618 -9.95625 -181.924
lowerback 3.60078 2.59052 -3.71058
upperback 1.02014 3.27389 -0.336332
thorax -1.15674 1.62442 1.57727
lowerneck -15.5944 -8.3116 -15.4182
upperneck 22.7186 -9.90465 6.3376
head 11.0422 -5.34648 3.31955
rclavicle 4.47887e-014 -2.73329e-016
rhumerus 1.63583 1.4205 -83.315
rradius 41.9629
rwrist -32.4415
rhand -9.73555 21.3286
rfingers 7.12502
rthumb 16.2383 -8.01136
lclavicle 4.47887e-014 -2.73329e-016
lhumerus -25.5329 -1.41747 76.626
lradius 52.481
lwrist -0.117267
lhand -2.20261 35.9092
lfingers 7.12502
lthumb 23.4791 64.4964
rfemur -19.9525 -2.52605 16.0892
rtibia 12.6417
rfoot -5.9386 -9.97514
rtoes -2.22705
lfemur 1.14781 -4.32114 -24.0701
ltibia 22.3578
lfoot -16.2302 -5.69326
ltoes -0.0288004
49
root 8.38121 17.855 9.04016 -179.703 -10.3411 -181.91
lowerback 3.8864 2.49331 -3.7016
upperback 0.932219 3.13496 -0.208737
thorax -1.40565 1.56168 1.69493
lowerneck -15.2145 -8.43702 -15.6048
upperneck 22.4233 -10.0798 6.34152
head 10.8941 -5.44131 3.33245
rclavicle -3.50368e-014 4.61398e-015
rhumerus 0.953582 2.44533 -83.0515
rradius 42.7196
rwrist -33.2132
rhand -9.36662 20.281
rfingers 7.12502
rthumb 16.5935 -9.02962
lclavicle -3.50368e-014 4.61398e-015
lhumerus -25.9992 -1.24185 76.5936
lradius 52.6632
lwrist -0.343344
lhand -2.66654 35.768
lfingers 7.12502
lthumb 23.034 64.4116
rfemur -20.0448 -3.05691 16.3833
rtibia 13.6567
rfoot -5.69293 -9.85517
rtoes -3.47037
lfemur 1.54095 -4.36487 -24.0527
ltibia 22.3653
lfoot -16.2381 -5.69004
ltoes -3.49081
50
root 8.37356 17.8469 8.93021 -179.854 -10.9713 -181.506
lowerback 3.81721 2.28932 -3.15592
upperback 1.01763 2.89426 -0.0448391
thorax -1.24692 1.43801 1.57768
lowerneck -14.908 -8.47435 -15.8245
upperneck 22.008 -10.1606 6.63874
head 10.7229 -5.45535 3.47248
rclavicle 7.30239e-014 -6.18717e-015
rhumerus 0.62309 3.55043 -82.791
rradius 43.09
rwrist -32.2319
rhand -10.4188 19.694
rfingers 7.12502
rthumb 15.5803 -9.69845
lclavicle 7.30239e-014 -6.18717e-015
lhumerus -26.2984 -1.12581 76.5327
lradius 52.7978
lwrist -0.322806
lhand -2.37517 35.897
lfingers 7.12502
lthumb 23.3135 64.5054
rfemur -20.1033 -3.59992 17.0256
rtibia 14.8634
rfoot -5.10275 -10.0137
rtoes -3.89404
lfemur 2.02657 -4.51909 -23.6463
ltibia 22.2833
lfoot -16.3021 -5.44771
ltoes -0.816866
51
root 8.3774 17.8372 8.81326 -179.793 -11.111 -181.843
lowerback 3.51105 2.30315 -3.43858
upperback 1.15716 2.91166 -0.134225
thorax -0.942722 1.4391 1.65911
lowerneck -14.6217 -8.60764 -15.8348
upperneck 21.4382 -10.3617 6.78326
head 10.4949 -5.51497 3.50355
rclavicle -3.66773e-014 -4.00054e-015
rhumerus 0.399327 4.52203 -82.5948
rradius 43.0724
rwrist -31.1362
rhand -11.8772 19.9604
rfingers 7.12502
rthumb 14.1753 -9.53596
lclavicle -3.66773e-014 -4.00054e-015
lhumerus -26.3999 -1.09659 76.4129
lradius 52.7706
lwrist -0.222499
lhand -1.79376 35.8056
lfingers 7.12502
lthumb 23.8712 64.3422
rfemur -20.187 -3.34416 16.7365
rtibia 15.8715
rfoot -4.28842 -10.1843
rtoes -2.40674
lfemur 2.45166 -4.3404 -24.0344
ltibia 22.2532
lfoot -16.192 -5.03238
ltoes -8.9326
52
root 8.38094 17.8345 8.70394 -179.604 -11.4734 -182.387
lowerback 3.34769 2.23486 -3.81056
upperback 1.22617 2.80957 -0.317501
thorax -0.783457 1.38218 1.69195
lowerneck -14.6405 -8.82319 -15.7896
upperneck 21.2008 -10.6406 6.79767
head 10.4458 -5.62307 3.45522
rclavicle 7.14382e-017 3.57812e-015
rhumerus -0.125125 5.38651 -82.4623
rradius 43.2948
rwrist -31.2095
rhand -12.8574 21.4313
rfingers 7.12502
rthumb 13.2306 -8.12886
lclavicle 7.14382e-017 3.57812e-015
lhumerus -26.4324 -0.939625 76.2643
lradius 52.6711
lwrist -0.254873
lhand -1.78192 35.4958
lfingers 7.12502
lthumb 23.8825 64.0309
rfemur -20.3069 -3.0644 16.1519
rtibia 16.7666
rfoot -3.08747 -10.3915
rtoes -0.490523
lfemur 2.70932 -4.63368 -24.6311
ltibia 22.2858
lfoot -16.1152 -4.72658
ltoes -5.68147
53
root 8.37459 17.8407 8.59665 -179.4 -12.4348 -182.35
lowerback 3.1762 1.97851 -3.48117
upperback 1.21145 2.48798 -0.363328
thorax -0.668286 1.22151 1.48184
lowerneck -14.7687 -9.06864 -15.963
upperneck 21.2887 -10.9966 7.06806
head 10.5746 -5.7668 3.51508
rclavicle 2.90412e-015 -7.0817e-015
rhumerus -0.888749 5.74903 -82.3759
rradius 43.7667
rwrist -32.0791
rhand -12.2602 22.1036
rfingers 7.12502
rthumb 13.8062 -7.41828
lclavicle 2.90412e-015 -7.0817e-015
lhumerus -26.5874 -0.756144 76.1969
lradius 52.6185
lwrist -0.453298
lhand -2.39507 35.4048
lfingers 7.12502
lthumb 23.2944 64.0155
rfemur -20.4282 -3.33485 16.1525
rtibia 17.6061
rfoot -1.57027 -10.4391
rtoes 2.28942
lfemur 2.80801 -5.65598 -24.6054
ltibia 22.3515
lfoot -16.0706 -4.51375
ltoes -6.81235
54
root 8.37828 17.842 8.48683 -179.366 -13.178 -182.101
lowerback 2.83297 1.81514 -3.26397
upperback 1.36018 2.29633 -0.213459
thorax -0.311536 1.11964 1.53657
lowerneck -14.7028 -9.34122 -16.2765
upperneck 21.1249 -11.3826 7.41514
head 10.5958 -5.92357 3.62556
rclavicle 5.10628e-015 -2.83268e-015
rhumerus -1.57481 6.06065 -82.1398
rradius 44.3933
rwrist -32.686
rhand -11.4979 21.8958
rfingers 7.12502
rthumb 14.5409 -7.5746
lclavicle 5.10628e-015 -2.83268e-015
lhumerus -26.8298 -0.544799 76.2743
lradius 52.6966
lwrist -0.667459
lhand -3.21462 35.4359
lfingers 7.12502
lthumb 22.508 64.1441
rfemur -20.3532 -3.40107 16.4164
rtibia 18.2292
rfoot -0.357155 -10.4497
rtoes 6.07228
lfemur 2.96948 -6.43493 -24.2907
ltibia 22.6238
lfoot -15.8788 -4.54949
ltoes -8.38909
55
root 8.39361 17.8433 8.38158 -179.591 -13.5244 -181.896
lowerback 2.59481 1.59157 -3.34155
upperback 1.73664 2.00747 0.134106
thorax 0.207818 0.958126 1.95972
lowerneck -14.9928 -9.48721 -17.033
upperneck 20.9327 -11.4376 7.953
head 10.6751 -5.92737 3.91719
rclavicle 5.50012e-014 -3.97569e-015
rhumerus -2.12717 7.39638 -81.8246
rradius 45.3792
rwrist -33.0451
rhand -11.2876 21.1502
rfingers 7.12502
rthumb 14.7435 -8.30543
lclavicle 5.50012e-014 -3.97569e-015
lhumerus -27.02 0.570051 76.3697
lradius 52.7115
lwrist -0.911255
lhand -3.16121 35.4215
lfingers 7.12502
lthumb 22.5592 64.1234
rfemur -19.9791 -3.15958 16.6716
rtibia 18.6264
rfoot 0.215941 -10.7396
rtoes 9.50581
lfemur 3.26529 -6.64725 -23.9491
ltibia 23.1745
lfoot -15.7542 -4.89428
ltoes -7.78661
56
root 8.40366 17.8425 8.27463 -179.812 -13.9211 -181.718
lowerback 2.68424 1.24513 -3.27997
upperback 1.92281 1.54118 0.438214
thorax 0.369612 0.716596 2.25075
lowerneck -15.4075 -9.53071 -17.766
upperneck 20.8413 -11.3098 8.39765
head 10.7814 -5.85578 4.20067
rclavicle 2.3966e-014 -1.59028e-015
rhumerus -3.17752 9.25327 -81.6964
rradius 46.812
rwrist -33.8046
rhand -11.6671 21.1655
rfingers 7.12502
rthumb 14.3778 -8.31655
lclavicle 2.3966e-014 -1.59028e-015
lhumerus -27.316 2.0077 76.361
lradius 52.3474
lwrist -1.14898
lhand -2.37507 35.2451
lfingers 7.12502
lthumb 23.3136 63.8535
rfemur -19.575 -3.25417 16.911
rtibia 18.9476
rfoot 0.482107 -10.6873
rtoes 10.2419
lfemur 3.45414 -6.91302 -23.6626
ltibia 23.8998
lfoot -15.8226 -5.14797
ltoes -5.39185
57
root 8.40906 17.8463 8.16076 -179.846 -14.3094 -181.306
lowerback 2.5168 0.991826 -2.86784
upperback 2.01368 1.21612 0.704587
thorax 0.579388 0.551355 2.30552
lowerneck -15.4463 -9.69004 -18.2576
upperneck 20.4014 -11.4022 8.68095
head 10.6943 -5.8822 4.36062
rclavicle -4.37326e-015 -1.19271e-014
rhumerus -4.2927 10.748 -81.6692
rradius 48.2098
rwrist -34.5596
rhand -12.4226 21.6281
rfingers 7.12502
rthumb 13.6497 -7.9043
lclavicle -4.37326e-015 -1.19271e-014
lhumerus -27.489 3.03874 76.3844
lradius 51.8653
lwrist -1.32197
lhand -1.90008 35.4533
lfingers 7.12502
lthumb 23.7692 64.0032
rfemur -19.4397 -3.31042 17.3963
rtibia 19.3264
rfoot 0.709393 -10.1544
rtoes 9.44518
lfemur 3.33016 -7.22121 -23.1138
ltibia 24.6904
lfoot -15.9085 -5.31031
ltoes -7.18997
58
root 8.41372 17.858 8.04922 -179.735 -14.5942 -181.147
lowerback 2.05122 1.07918 -2.64273
upperback 2.17499 1.34847 0.707781
thorax 1.00222 0.61082 2.19033
lowerneck -14.8689 -10.0173 -18.2988
upperneck 19.4994 -11.9357 8.98925
head 10.3632 -6.08122 4.40163
rclavicle 2.64881e-014 -3.37934e-015
rhumerus -5.34537 11.1782 -81.6815
rradius 49.4955
rwrist -34.7459
rhand -13.6903 21.6019
rfingers 7.12502
rthumb 12.4277 -8.00859
lclavicle 2.64881e-014 -3.37934e-015
lhumerus -27.3426 3.07862 76.4445
lradius 51.3807
lwrist -1.4377
lhand -1.93735 36.0393
lfingers 7.12502
lthumb 23.7335 64.5938
rfemur -19.4813 -3.44131 17.6306
rtibia 19.8105
rfoot 0.793588 -9.44674
rtoes 7.26741
lfemur 3.05981 -7.24489 -22.7844
ltibia 25.4995
lfoot -15.794 -5.65302
ltoes -8.84134
59
root 8.42006 17.8592 7.94014 -179.594 -14.9712 -181.165
lowerback 1.83261 1.37316 -2.47737
upperback 2.14217 1.75355 0.402847
thorax 1.08169 0.818562 1.78392
lowerneck -13.9311 -10.409 -17.4028
upperneck 18.664 -12.7871 8.92518
head 9.94671 -6.42502 4.12912
rclavicle 2.60656e-014 -5.56597e-015
rhumerus -6.77722 10.5827 -81.9946
rradius 50.7829
rwrist -34.568
rhand -15.4526 21.351
rfingers 7.12502
rthumb 10.7282 -8.35508
lclavicle 2.60656e-014 -5.56597e-015
lhumerus -27.2749 2.08481 76.3484
lradius 50.6912
lwrist -1.40916
lhand -2.04417 36.4079
lfingers 7.12502
lthumb 23.631 64.9757
rfemur -19.5188 -3.92143 17.7066
rtibia 20.2682
rfoot 0.786253 -9.00069
rtoes 4.66988
lfemur 2.73941 -7.39675 -22.6429
ltibia 26.3468
lfoot -15.4655 -6.05186
ltoes -9.65946
60
root 8.42747 17.8552 7.83053 -179.477 -15.3017 -180.974
lowerback 1.76728 1.45467 -2.13407
upperback 2.07685 1.87039 0.264074
thorax 1.0605 0.884688 1.44897
lowerneck -13.8121 -10.7435 -16.656
upperneck 18.3621 -13.3528 8.66897
head 9.82208 -6.65455 3.83467
rclavicle -2.00897e-014 3.57812e-015
rhumerus -8.01455 10.4626 -82.4326
rradius 52.04
rwrist -34.5623
rhand -16.9665 20.692
rfingers 7.12502
rthumb 9.26768 -9.08427
lclavicle -2.00897e-014 3.57812e-015
lhumerus -27.4922 1.78999 76.1736
lradius 50.1359
lwrist -1.37674
lhand -2.07019 36.6414
lfingers 7.12502
lthumb 23.6061 65.2124
rfemur -19.5999 -4.29565 18.0066
rtibia 20.7284
rfoot 0.854255 -8.79711
rtoes 3.31749
lfemur 2.41419 -7.86097 -22.3286
ltibia 27.1653
lfoot -15.1932 -6.24099
ltoes -11.2547
61
root 8.43127 17.8577 7.72136 -179.547 -15.2522 -180.605
lowerback 1.9865 1.39622 -1.57887
upperback 1.94066 1.79587 0.318443
thorax 0.8158 0.858853 1.18703
lowerneck -13.9211 -10.8521 -16.5386
upperneck 18.2546 -13.4718 8.58059
head 9.80464 -6.70159 3.76118
rclavicle 5.64051e-015 -6.55989e-015
rhumerus -9.21822 11.0073 -82.9362
rradius 53.3507
rwrist -34.9425
rhand -18.1278 21.8323
rfingers 7.12502
rthumb 8.14702 -7.99062
lclavicle 5.64051e-015 -6.55989e-015
lhumerus -28.3855 2.55465 75.8829
lradius 49.8977
lwrist -1.68023
lhand -1.80909 36.4801
lfingers 7.12502
lthumb 23.8565 65.0186
rfemur -19.6383 -4.35385 18.4927
rtibia 21.3196
rfoot 0.767564 -8.38352
rtoes 1.5731
lfemur 2.35452 -8.04594 -21.8505
ltibia 27.8697
lfoot -14.9581 -6.49983
ltoes -12.0206
62
root 8.43529 17.8648 7.61237 -179.666 -14.9606 -180.52
lowerback 2.51373 1.35688 -1.27113
upperback 1.63258 1.74534 0.300408
thorax 0.2163 0.845903 0.979163
lowerneck -13.6292 -10.7743 -16.696
upperneck 18.0943 -13.4044 8.73428
head 9.70965 -6.67621 3.86364
rclavicle 1.98785e-014 -4.27387e-015
rhumerus -10.4881 11.4785 -83.5865
rradius 54.5494
rwrist -35.6367
rhand -18.6478 22.0361
rfingers 7.12502
rthumb 7.64512 -7.80573
lclavicle 1.98785e-014 -4.27387e-015
lhumerus -29.8241 3.40712 75.5002
lradius 49.708
lwrist -2.05877
lhand -1.38232 36.3597
lfingers 7.12502
lthumb 24.2657 64.8441
rfemur -19.5746 -4.39186 18.7042
rtibia 21.9075
rfoot 0.361381 -7.73704
rtoes -0.01857
lfemur 2.44193 -7.75202 -21.6312
ltibia 28.5116
lfoot -14.4196 -6.88047
ltoes -11.4852
